<svg version="1.1" xmlns="http://www.w3.org/2000/svg" width="150" height="150">
<path d="M0 0 C1.79244141 0.01740234 1.79244141 0.01740234 3.62109375 0.03515625 C5.41740234 0.04869141 5.41740234 0.04869141 7.25 0.0625 C8.17683594 0.07410156 9.10367188 0.08570312 10.05859375 0.09765625 C11.77231067 3.90414361 13.48117656 7.71275919 15.18554688 11.5234375 C15.76624262 12.81993493 16.34826833 14.11583752 16.93164062 15.41113281 C17.76911774 17.27124354 18.60181513 19.13342919 19.43359375 20.99609375 C19.93632813 22.11677246 20.4390625 23.23745117 20.95703125 24.39208984 C22.05859375 27.09765625 22.05859375 27.09765625 22.05859375 29.09765625 C23.19296875 29.15953125 24.32734375 29.22140625 25.49609375 29.28515625 C39.39638768 30.84921468 54.27571881 35.73152048 64.05859375 46.09765625 C67.15123767 50.68674078 67.81746189 54.70969243 67.05859375 60.09765625 C64.78978728 67.04587608 59.34749285 71.23290832 53.171875 74.734375 C26.46839292 87.77408273 -8.22625587 88.62337165 -36.31274414 79.09838867 C-44.87491444 75.98735551 -52.38097425 72.09228728 -58.50390625 65.22265625 C-60.38393592 61.13563522 -61.24932919 57.60596394 -60.94140625 53.09765625 C-57.59074462 44.64816171 -50.19948191 39.09256761 -42.12890625 35.296875 C-33.88181502 32.19410906 -23.85119406 28.46511553 -14.94140625 29.09765625 C-14.8228125 28.38577148 -14.70421875 27.67388672 -14.58203125 26.94042969 C-13.90994277 23.95803704 -12.91608244 21.41240271 -11.69140625 18.61328125 C-11.02625 17.08767578 -11.02625 17.08767578 -10.34765625 15.53125 C-9.88359375 14.48066406 -9.41953125 13.43007813 -8.94140625 12.34765625 C-8.47734375 11.28160156 -8.01328125 10.21554688 -7.53515625 9.1171875 C-3.59211547 0.11926014 -3.59211547 0.11926014 0 0 Z M3.05859375 21.09765625 C-1.37198626 29.58332059 -5.22835204 38.31840861 -9.09960938 47.06811523 C-10.20025736 49.55515636 -11.30494522 52.04037438 -12.41015625 54.52539062 C-13.11351723 56.1105724 -13.81665062 57.69585518 -14.51953125 59.28125 C-14.84866516 60.02185165 -15.17779907 60.76245331 -15.51690674 61.52549744 C-16.76973679 64.36075249 -17.96053549 67.15504397 -18.94140625 70.09765625 C-11.40012857 70.90601198 -3.96132313 71.25320998 3.62109375 71.22265625 C4.58466797 71.22652344 5.54824219 71.23039062 6.54101562 71.234375 C12.7712005 71.22597286 18.87314664 70.84028206 25.05859375 70.09765625 C18.44885789 53.59816524 11.21740615 37.3638952 4.05859375 21.09765625 C3.72859375 21.09765625 3.39859375 21.09765625 3.05859375 21.09765625 Z M-33.37890625 46.34765625 C-34.03439453 46.55261719 -34.68988281 46.75757813 -35.36523438 46.96875 C-39.58813745 48.36650127 -42.70549879 50.04252574 -45.94140625 53.09765625 C-47.26739185 55.47649114 -47.26739185 55.47649114 -46.94140625 58.09765625 C-43.59807648 62.48577658 -40.05848561 64.42297573 -34.94140625 66.09765625 C-32.83726932 66.07881259 -32.83726932 66.07881259 -30.94140625 65.09765625 C-29.55918355 63.02431944 -29.55918355 63.02431944 -28.58203125 60.40625 C-28.18886719 59.46201172 -27.79570313 58.51777344 -27.390625 57.54492188 C-26.99488281 56.55169922 -26.59914063 55.55847656 -26.19140625 54.53515625 C-25.78019531 53.53806641 -25.36898437 52.54097656 -24.9453125 51.51367188 C-23.93027845 49.04690308 -22.92976832 46.57520535 -21.94140625 44.09765625 C-26.15219788 44.09765625 -29.44759435 45.03337603 -33.37890625 46.34765625 Z M29.05859375 44.09765625 C31.39796986 51.76561127 34.60628181 58.86902899 38.05859375 66.09765625 C44.5139848 65.35486511 48.4185108 63.7377392 53.05859375 59.09765625 C53.72700229 56.72751433 53.72700229 56.72751433 53.05859375 54.09765625 C47.02795817 47.41506007 37.81902574 44.87636132 29.05859375 44.09765625 Z " fill="#27D17D" transform="translate(69.94140625,18.90234375)"/>
<path d="M0 0 C1.79244141 0.01740234 1.79244141 0.01740234 3.62109375 0.03515625 C5.41740234 0.04869141 5.41740234 0.04869141 7.25 0.0625 C8.17683594 0.07410156 9.10367188 0.08570312 10.05859375 0.09765625 C22.14971805 26.78649569 22.14971805 26.78649569 25.921875 38.046875 C27.68645784 42.78274852 30.02675738 47.19389619 32.34375 51.67578125 C34.86299265 56.70278937 36.98284971 61.87481641 39.05859375 67.09765625 C34.5738469 69.67533785 30.11051277 69.69882054 25.05859375 70.09765625 C20.42295668 61.12891179 16.33013466 52.00348043 12.37109375 42.72265625 C11.5163789 40.72452718 10.66059272 38.72687326 9.80278015 36.73007202 C9.03200013 34.93512532 8.26454719 33.13875097 7.49731445 31.34228516 C6.10790914 28.2088732 4.61709944 25.14995858 3.05859375 22.09765625 C2.60532715 23.12536133 2.15206055 24.15306641 1.68505859 25.21191406 C-0.02292915 29.0823623 -1.73479965 32.9510835 -3.44775391 36.81933594 C-4.18381412 38.48294125 -4.9188681 40.1469922 -5.65283203 41.81152344 C-9.86399992 51.35990138 -14.1405305 60.82747602 -18.94140625 70.09765625 C-23.32074744 69.5780734 -27.62944016 69.04089883 -31.94140625 68.09765625 C-31.3570099 64.71239269 -30.51435893 61.81247775 -29.0859375 58.69140625 C-28.7137207 57.87164307 -28.34150391 57.05187988 -27.95800781 56.20727539 C-27.36197754 54.91551392 -27.36197754 54.91551392 -26.75390625 53.59765625 C-26.3475293 52.7048999 -25.94115234 51.81214355 -25.52246094 50.89233398 C-23.76400747 47.03605805 -21.98880351 43.18800797 -20.1875 39.3515625 C-17.29295509 33.1770372 -14.70325272 26.97690239 -12.3046875 20.59375 C-10.69570073 16.46755183 -8.96382205 12.40580551 -7.19140625 8.34765625 C-6.88533447 7.64342529 -6.5792627 6.93919434 -6.26391602 6.21362305 C-3.58151839 0.11890831 -3.58151839 0.11890831 0 0 Z " fill="#000100" transform="translate(69.94140625,18.90234375)"/>
<path d="M0 0 C1.81771173 4.08103297 3.62826264 8.16520387 5.4375 12.25 C6.2119043 13.98830078 6.2119043 13.98830078 7.00195312 15.76171875 C7.49501953 16.87675781 7.98808594 17.99179688 8.49609375 19.140625 C8.95169678 20.16704102 9.4072998 21.19345703 9.87670898 22.25097656 C11 25 11 25 12 29 C7.05 29 2.1 29 -3 29 C-5.95794247 23.25811167 -8.76285362 17.46869073 -11.375 11.5625 C-11.89835937 10.38816406 -12.42171875 9.21382812 -12.9609375 8.00390625 C-14 5 -14 5 -13 2 C-11.07421875 1.26953125 -11.07421875 1.26953125 -8.6875 0.8125 C-7.90761719 0.65394531 -7.12773438 0.49539062 -6.32421875 0.33203125 C-4 0 -4 0 0 0 Z " fill="#000000" transform="translate(116,102)"/>
<path d="M0 0 C2.02910711 0.25327449 4.04962145 0.57730068 6.0625 0.9375 C7.16722656 1.13214844 8.27195312 1.32679687 9.41015625 1.52734375 C10.69212891 1.76130859 10.69212891 1.76130859 12 2 C13.26077089 5.78231267 12.53364229 6.70996071 10.9453125 10.2890625 C10.27048828 11.82433594 10.27048828 11.82433594 9.58203125 13.390625 C8.86080078 14.99164063 8.86080078 14.99164063 8.125 16.625 C7.65191406 17.70007813 7.17882812 18.77515625 6.69140625 19.8828125 C3.16884566 27.83115434 3.16884566 27.83115434 2 29 C-0.53049402 29.07313567 -3.03304837 29.09247527 -5.5625 29.0625 C-6.27341797 29.05798828 -6.98433594 29.05347656 -7.71679688 29.04882812 C-9.47790013 29.03700864 -11.23896036 29.01907263 -13 29 C-10.47534089 22.38937943 -7.67674626 15.90634903 -4.8125 9.4375 C-4.45542969 8.62748535 -4.09835938 7.8174707 -3.73046875 6.98291016 C-3.39273437 6.22413574 -3.055 5.46536133 -2.70703125 4.68359375 C-2.4025708 3.99837646 -2.09811035 3.31315918 -1.78442383 2.60717773 C-1 1 -1 1 0 0 Z " fill="#000000" transform="translate(31,102)"/>
<path d="M0 0 C3.5 0.6875 3.5 0.6875 6.5 3.25 C8.5 6.6875 8.5 6.6875 8.625 10.3125 C7.2810498 14.3443506 6.19824535 15.63291925 2.5 17.6875 C-0.5 18.25 -0.5 18.25 -3.5 17.6875 C-7.13525215 15.07960172 -8.33397068 13.6172642 -9.125 9.1875 C-8.10791972 3.49185045 -5.66083719 1.11195016 0 0 Z " fill="#000000" transform="translate(132.5,95.3125)"/>
<path d="M0 0 C2.12890625 0.484375 2.12890625 0.484375 4.69140625 2.609375 C6.38310394 5.99277038 6.75086556 7.75261914 6.12890625 11.484375 C4.15498715 14.90077345 2.94352166 16.20705912 -0.80859375 17.484375 C-4.47401516 17.484375 -6.00165398 16.71616148 -8.87109375 14.484375 C-11.21278139 10.97184354 -11.36733052 9.61968144 -10.87109375 5.484375 C-8.29594262 0.33407274 -5.41261742 -0.32101191 0 0 Z " fill="#000000" transform="translate(43.87109375,28.515625)"/>
</svg>
